<?xml version="1.0" encoding="UTF-8"?><svg id="Layer_1" xmlns="http://www.w3.org/2000/svg" viewBox="0 0 235 81"><defs><style>.cls-1{fill:#510c76;}</style></defs><g><path class="cls-1" d="M50.65,21.99c1.54,0,2.86-.56,3.98-1.67,1.11-1.11,1.67-2.44,1.67-3.98s-.56-2.86-1.67-3.98c-1.11-1.11-2.44-1.67-3.98-1.67s-2.86,.56-3.98,1.67c-1.11,1.11-1.67,2.44-1.67,3.98s.56,2.86,1.67,3.98c1.11,1.11,2.44,1.67,3.98,1.67Z"/><path class="cls-1" d="M62.45,21.99c1.54,0,2.86-.56,3.98-1.67,1.11-1.11,1.67-2.44,1.67-3.98s-.56-2.86-1.67-3.98c-1.11-1.11-2.44-1.67-3.98-1.67s-2.86,.56-3.98,1.67c-1.11,1.11-1.67,2.44-1.67,3.98s.56,2.86,1.67,3.98c1.11,1.11,2.44,1.67,3.98,1.67Z"/><path class="cls-1" d="M112.34,57.15h.12s-.08,0-.12,0Z"/><path class="cls-1" d="M162.14,24.45c-3.34,0-6.44,.65-9.31,1.95-2.86,1.3-5.44,3.04-7.72,5.21-2.28,2.18-4.27,4.67-5.97,7.48-1.7,2.81-3.08,5.75-4.14,8.83-2.28,0-3.89-.48-4.81-1.43-.93-.95-1.39-2.28-1.39-3.98v-11.06h-10.18v12.73c0,.9-.11,1.61-.32,2.11-.21,.5-.56,.89-1.03,1.15-.48,.27-1.1,.43-1.87,.48-.77,.05-1.74,.08-2.9,.08-1.27,0-2.29-.11-3.06-.32-.77-.21-1.35-.53-1.75-.95-.4-.42-.65-.99-.76-1.71-.11-.72-.16-1.55-.16-2.51V0h-10.34V43.39c0,1.96-.36,3.22-1.07,3.78-.72,.56-1.98,.84-3.78,.84-2.6,0-4.31-.42-5.13-1.27-.82-.85-1.23-2.25-1.23-4.22v-11.06h-10.34v11.93c0,1.96-.36,3.22-1.07,3.78-.72,.56-1.98,.84-3.78,.84h-22.26c-3.03,0-4.14-.5-4.83-.87-.69-.37-1.17-.86-1.43-1.47-.27-.61-.4-1.44-.4-2.51v-11.69h-10.34v13.13c0,2.28,.27,4.22,.8,5.81,.53,1.59,1.43,2.89,2.71,3.9,1.27,1.01,2.97,1.74,5.1,2.19,2.12,.45,3.78,.68,6.91,.68h25.48c1.06,0,2.14-.04,3.23-.12,1.09-.08,2.14-.25,3.15-.52,1.01-.26,1.95-.68,2.83-1.23,.88-.56,1.63-1.29,2.27-2.19,.95,1.7,2.2,2.8,3.74,3.3,1.37,.45,2.74,.69,4.11,.74,.14,0,.28,.02,.43,.02h1.75c1.06,0,2.13-.04,3.22-.12,1.09-.08,2.13-.25,3.14-.52,1.01-.26,1.96-.68,2.86-1.23,.9-.56,1.67-1.29,2.31-2.19,.95,1.7,2.09,2.8,3.42,3.3,1.31,.5,2.73,.75,4.26,.76,3.5,0,6.38-.23,8.63-.68,2.28-.45,4.14-1.6,5.57-3.46,.85,1.01,2.21,1.95,4.1,2.82,1.88,.87,4.18,1.31,6.88,1.31h41.68v-14.24c0-5.89-1.54-10.43-4.61-13.64-3.08-3.21-7.27-4.81-12.57-4.81Zm6.92,23.55h-23.71c.64-1.75,1.47-3.41,2.51-4.97,1.03-1.56,2.23-2.94,3.58-4.14,1.35-1.19,2.82-2.15,4.42-2.86,1.59-.72,3.29-1.07,5.09-1.07,3.02,0,5.13,.87,6.32,2.63,1.19,1.75,1.79,3.98,1.79,6.68v3.74Z"/><path class="cls-1" d="M20.3,45.85c-1.54,0-2.86,.56-3.98,1.67-1.11,1.11-1.67,2.44-1.67,3.98s.56,2.86,1.67,3.98c1.11,1.11,2.44,1.67,3.98,1.67s2.86-.56,3.98-1.67c1.11-1.11,1.67-2.44,1.67-3.98s-.56-2.86-1.67-3.98c-1.11-1.11-2.44-1.67-3.98-1.67Z"/><path class="cls-1" d="M220.35,42.96c0-10.33-8.37-18.7-18.7-18.7s-18.7,8.37-18.7,18.7,8.37,18.7,18.7,18.7c.89,0,1.77-.07,2.63-.19l-2.63,4.65v14.87l7.11-12.59,9.18-16.26h0c1.54-2.72,2.42-5.85,2.42-9.19Zm-11.2,4.35h0c-1.51,2.67-4.37,4.47-7.64,4.47-4.85,0-8.79-3.93-8.79-8.78s3.93-8.79,8.79-8.79,8.79,3.93,8.79,8.79c0,1.57-.41,3.04-1.14,4.32Z"/></g><path class="cls-1" d="M159.9,12.73l-19.12,6.3v-3.82l19.12-6.38v3.9Z"/></svg>